#N canvas 364 627 450 300 10;
#X obj 64 9 inlet;
#X obj 257 4 inlet;
#X obj 158 208 curve 2;
#X obj 143 121 gemhead;
#X obj 158 161 color 1 0 1;
#X obj 64 160 loadbang;
#X msg 63 190 draw line;
#X connect 0 0 2 1;
#X connect 1 0 2 2;
#X connect 3 0 4 0;
#X connect 4 0 2 0;
#X connect 5 0 6 0;
#X connect 6 0 2 0;
