#N canvas 269 348 983 647 10;
#X obj 7 301 connection;
#X obj 375 115 joint head;
#X obj 714 266 connection;
#X obj 324 529 connection;
#X obj 428 537 connection;
#X obj 307 459 connection;
#X obj 415 458 connection;
#X obj 383 144 connection;
#X obj 421 385 connection;
#X obj 305 386 connection;
#X obj 249 263 connection;
#X obj 420 278 connection;
#X obj 284 207 connection;
#X obj 384 204 connection;
#X obj 147 256 connection;
#X obj 560 250 connection;
#X obj 365 325 joint torso;
#X obj 364 185 joint neck;
#X obj 196 231 joint l_shoulder;
#X obj 469 216 joint r_shoulder;
#X obj 282 428 joint l_hip;
#X obj 410 427 joint r_hip;
#X obj 305 493 joint l_knee;
#X obj 415 499 joint r_knee;
#X obj 313 575 joint l_foot;
#X obj 425 580 joint r_foot;
#X obj 65 271 joint l_elbow;
#X obj 639 244 joint r_elbow;
#X obj -72 324 joint l_hand;
#X obj 797 265 joint r_hand;
#X obj 355 44 inlet;
#X connect 1 0 7 0;
#X connect 16 0 8 0;
#X connect 16 0 9 1;
#X connect 16 0 11 1;
#X connect 16 0 10 1;
#X connect 17 0 7 1;
#X connect 17 0 12 0;
#X connect 17 0 13 0;
#X connect 18 0 10 0;
#X connect 18 0 12 1;
#X connect 18 0 14 1;
#X connect 19 0 11 0;
#X connect 19 0 13 1;
#X connect 19 0 15 0;
#X connect 20 0 5 0;
#X connect 20 0 9 0;
#X connect 21 0 6 0;
#X connect 21 0 8 1;
#X connect 22 0 3 0;
#X connect 22 0 5 1;
#X connect 23 0 4 0;
#X connect 23 0 6 1;
#X connect 24 0 3 1;
#X connect 25 0 4 1;
#X connect 26 0 0 1;
#X connect 26 0 14 0;
#X connect 27 0 2 0;
#X connect 27 0 15 1;
#X connect 28 0 0 0;
#X connect 29 0 2 1;
#X connect 30 0 1 0;
#X connect 30 0 17 0;
#X connect 30 0 18 0;
#X connect 30 0 26 0;
#X connect 30 0 28 0;
#X connect 30 0 19 0;
#X connect 30 0 27 0;
#X connect 30 0 29 0;
#X connect 30 0 16 0;
#X connect 30 0 20 0;
#X connect 30 0 21 0;
#X connect 30 0 22 0;
#X connect 30 0 23 0;
#X connect 30 0 24 0;
#X connect 30 0 25 0;
