#N canvas 73 138 551 486 10;
#X obj 148 291 autoscale;
#X obj 248 261 autoscale;
#X obj 151 388 *~;
#X obj 131 425 dac~;
#X obj 248 335 line~;
#X msg 245 313 \$1 20;
#X obj 142 225 unpack 0 0 0 0;
#X obj 252 291 reverse;
#X obj 244 361 *~;
#X obj 306 236 bng 15 250 50 0 empty empty empty 17 7 0 10 -262144
-1 -1;
#X obj 76 332 phasevocoder voice.wav;
#X obj 144 155 inlet;
#X obj 205 263 bng 15 250 50 0 empty empty empty 17 7 0 10 -262144
-1 -1;
#X connect 0 0 10 0;
#X connect 1 0 7 0;
#X connect 2 0 3 0;
#X connect 2 0 3 1;
#X connect 4 0 8 1;
#X connect 4 0 8 0;
#X connect 5 0 4 0;
#X connect 6 1 0 0;
#X connect 6 2 1 0;
#X connect 7 0 5 0;
#X connect 8 0 2 1;
#X connect 9 0 1 3;
#X connect 10 0 2 0;
#X connect 11 0 6 0;
#X connect 12 0 0 3;
