#N canvas 94 540 614 455 10;
#X obj 183 196 gemhead;
#X obj 183 271 translateXYZ;
#X obj 243 61 route \$1;
#X msg 351 309 text \$1;
#X obj 349 285 symbol \$1;
#X obj 351 255 loadbang;
#X msg 419 286 font vera.ttf;
#X obj 213 331 separator;
#X obj 211 357 translateXYZ 0 -0.3 0;
#X obj 351 404 text2d;
#X obj 399 345 loadbang;
#X msg 399 371 0.4;
#X obj 257 232 * -2;
#X obj 226 232 * -2;
#X obj 196 232 * -2;
#X obj 114 357 sphere 0.1;
#X obj 214 380 colorRGB 1 1 0;
#X obj 114 320 separator;
#X obj 41 427 outlet;
#X obj 16 274 pack float float float;
#X obj 246 96 unpack float float float;
#X obj 243 25 inlet;
#X obj 396 10 receive draw-skeleton-reset;
#X obj 398 36 bang;
#X msg 398 56 1000 1000 1000;
#X connect 0 0 1 0;
#X connect 1 0 7 0;
#X connect 1 0 17 0;
#X connect 2 0 20 0;
#X connect 3 0 9 0;
#X connect 4 0 3 0;
#X connect 5 0 4 0;
#X connect 5 0 6 0;
#X connect 6 0 9 0;
#X connect 7 0 8 0;
#X connect 8 0 16 0;
#X connect 10 0 11 0;
#X connect 11 0 9 1;
#X connect 12 0 1 3;
#X connect 12 0 19 2;
#X connect 13 0 1 2;
#X connect 13 0 19 1;
#X connect 14 0 1 1;
#X connect 14 0 19 0;
#X connect 16 0 9 0;
#X connect 17 0 15 0;
#X connect 19 0 18 0;
#X connect 20 0 14 0;
#X connect 20 1 13 0;
#X connect 20 2 12 0;
#X connect 21 0 2 0;
#X connect 22 0 23 0;
#X connect 23 0 24 0;
#X connect 24 0 20 0;
