#N canvas 291 54 874 667 10;
#X declare -lib mrpeach;
#X text 55 180 pddp/print;
#X obj 538 14 import mrpeach;
#X obj 53 109 pipelist;
#X obj 56 84 unpackOSC;
#X obj 63 32 udpreceive 7777;
#X obj 105 209 routeOSC /lost_user /new_user /new_skel /joint;
#X obj 471 104 gemwin;
#X msg 483 74 0 \, destroy;
#X obj 566 124 gemhead;
#X obj 568 167 world_light;
#X obj 378 409 joint torso;
#X obj 506 179 print;
#X obj 158 134 route head neck l_shoulder r_shoulder l_elbow r_elbow
l_hand r_hand torso l_hip r_hip l_knee r_knee l_foot r_foot;
#X obj 566 145 rotateXYZ 9 9 0;
#X obj 208 75 camera;
#X obj 205 27 loadbang;
#X obj 28 442 connection;
#X obj 283 309 joint neck;
#X obj 162 348 joint l_shoulder;
#X obj 415 366 joint r_shoulder;
#X obj 236 448 joint l_hip;
#X obj 323 451 joint r_hip;
#X obj 247 523 joint l_knee;
#X obj 334 541 joint r_knee;
#X obj 257 570 joint l_foot;
#X obj 344 579 joint r_foot;
#X obj 35 405 joint l_elbow;
#X obj 590 307 joint r_elbow;
#X obj 24 460 joint l_hand;
#X obj 708 348 joint r_hand;
#X obj 285 263 joint head;
#X obj 689 323 connection;
#X obj 197 545 connection;
#X obj 370 559 connection;
#X obj 227 485 connection;
#X obj 330 491 connection;
#X obj 311 285 connection;
#X obj 433 442 connection;
#X obj 218 416 connection;
#X obj 189 370 connection;
#X obj 414 387 connection;
#X obj 187 322 connection;
#X obj 412 339 connection;
#X obj 45 359 connection;
#X obj 514 316 connection;
#X obj 707 20 gemwin_control;
#X msg 207 52 distance 3;
#X msg 436 44 reset \, lighting 1 \, view -5 0 4 \, create \, 1;
#X obj 692 108 OSCeleton;
#X connect 2 0 5 0;
#X connect 3 0 2 0;
#X connect 3 1 2 1;
#X connect 4 0 3 0;
#X connect 5 3 10 0;
#X connect 5 3 12 0;
#X connect 5 3 17 0;
#X connect 5 3 18 0;
#X connect 5 3 19 0;
#X connect 5 3 20 0;
#X connect 5 3 21 0;
#X connect 5 3 22 0;
#X connect 5 3 23 0;
#X connect 5 3 24 0;
#X connect 5 3 25 0;
#X connect 5 3 26 0;
#X connect 5 3 27 0;
#X connect 5 3 28 0;
#X connect 5 3 29 0;
#X connect 5 3 30 0;
#X connect 7 0 6 0;
#X connect 8 0 13 0;
#X connect 10 0 37 0;
#X connect 10 0 38 1;
#X connect 10 0 40 1;
#X connect 10 0 39 1;
#X connect 12 15 11 0;
#X connect 13 0 9 0;
#X connect 15 0 46 0;
#X connect 17 0 36 1;
#X connect 17 0 41 0;
#X connect 17 0 42 0;
#X connect 18 0 39 0;
#X connect 18 0 41 1;
#X connect 18 0 43 1;
#X connect 19 0 40 0;
#X connect 19 0 42 1;
#X connect 19 0 44 0;
#X connect 20 0 34 0;
#X connect 20 0 38 0;
#X connect 21 0 35 0;
#X connect 21 0 37 1;
#X connect 22 0 32 0;
#X connect 22 0 34 1;
#X connect 23 0 33 0;
#X connect 23 0 35 1;
#X connect 24 0 32 1;
#X connect 25 0 33 1;
#X connect 26 0 16 1;
#X connect 26 0 43 0;
#X connect 27 0 31 0;
#X connect 27 0 44 1;
#X connect 28 0 16 0;
#X connect 29 0 31 1;
#X connect 30 0 36 0;
#X connect 46 0 14 0;
#X connect 47 0 6 0;
