#N canvas 368 189 615 328 10;
#X obj 41 107 mrpeach/udpreceive 7110;
#X obj 40 142 mrpeach/unpackOSC;
#X obj 129 225 mrpeach/udpsend;
#X msg 149 191 connect 255.255.255.255 7777;
#X obj 131 251 tgl 15 0 empty empty empty 17 7 0 10 -262144 -1 -1 1
1;
#X obj 150 169 loadbang;
#X obj 40 175 mrpeach/pipelist;
#X obj 368 97 qlist;
#X msg 387 75 read testdata.txt \, rewind;
#X msg 368 39 bang;
#X obj 415 129 receive osceleton;
#X obj 415 153 mrpeach/packOSC;
#X connect 0 0 1 0;
#X connect 0 0 2 0;
#X connect 1 0 6 0;
#X connect 1 1 6 1;
#X connect 2 0 4 0;
#X connect 3 0 2 0;
#X connect 5 0 3 0;
#X connect 8 0 7 0;
#X connect 9 0 7 0;
#X connect 10 0 11 0;
#X connect 11 0 2 0;
