#N canvas 814 54 816 607 10;
#X declare -lib mrpeach;
#X obj 538 14 import mrpeach;
#X obj 53 109 pipelist;
#X obj 56 84 unpackOSC;
#X obj 471 104 gemwin;
#X msg 483 74 0 \, destroy;
#X obj 566 124 gemhead;
#X obj 568 167 world_light;
#X obj 565 145 rotateXYZ 9 9 0;
#X obj 208 75 camera;
#X obj 205 27 loadbang;
#X msg 207 52 distance 3;
#X msg 436 44 reset \, lighting 1 \, view -5 0 4 \, create \, 1;
#X text 693 44 <-- start here;
#N canvas 591 337 780 595 sound 0;
#X obj 47 9 inlet;
#X obj 111 137 route l_shoulder l_elbow l_hand;
#X obj 293 156 route r_shoulder r_elbow r_hand;
#X obj 19 111 route head neck;
#X obj 104 290 autoscale;
#X obj 204 260 autoscale;
#X obj 142 400 *~;
#X obj 204 334 line~;
#X msg 201 312 \$1 20;
#X obj 204 282 reverse;
#X obj 200 360 *~;
#X obj 296 226 bng 15 250 50 0 empty empty empty 17 7 0 10 -262144
-1 -1;
#X obj 328 251 autoscale;
#X obj 568 251 autoscale;
#X obj 371 398 *~;
#X obj 568 345 line~;
#X msg 565 323 \$1 20;
#X obj 572 301 reverse;
#X obj 564 371 *~;
#X obj 327 350 osc~;
#X obj 328 309 notescale 50 80;
#X obj 328 330 mtof;
#X obj 428 251 autoscale;
#X obj 427 350 osc~;
#X obj 428 309 notescale 50 80;
#X obj 428 330 mtof;
#X obj 429 284 reverse;
#X obj 239 517 dac~;
#X obj 386 445 tgl 15 0 empty empty empty 17 7 0 10 -262144 -1 -1 0
1;
#X obj 348 470 *~;
#N canvas 504 96 667 493 scratchpad 0;
#X obj 18 15 inlet;
#X obj 156 156 twopointvector;
#X restore 550 59 pd scratchpad;
#N canvas 480 550 450 300 ring 0;
#X obj 330 19 inlet;
#X obj 188 22 inlet~;
#X obj 175 259 outlet~;
#X obj 197 187 *~;
#X obj 236 186 *~;
#X obj 241 22 inlet~;
#X obj 237 124 *~;
#X obj 330 153 line~;
#X obj 282 150 line~;
#X msg 282 129 \$1 20;
#X msg 330 125 \$1 20;
#X obj 335 87 -;
#X msg 332 58 1 \$1;
#X connect 0 0 12 0;
#X connect 0 0 9 0;
#X connect 1 0 6 0;
#X connect 1 0 3 0;
#X connect 3 0 2 0;
#X connect 4 0 2 0;
#X connect 5 0 6 1;
#X connect 6 0 4 0;
#X connect 7 0 4 1;
#X connect 8 0 3 1;
#X connect 9 0 8 0;
#X connect 10 0 7 0;
#X connect 11 0 10 0;
#X connect 12 0 11 0;
#X restore 151 432 pd ring mod;
#X obj 267 283 autoscale;
#X obj 344 427 *~ 0.1;
#X obj 189 478 *~ 4;
#X obj 25 380 phasevocoder voice.wav;
#X obj 133 215 unpack 0 0 0;
#X obj 387 203 unpack 0 0 0;
#X connect 0 0 3 0;
#X connect 1 2 36 0;
#X connect 1 3 2 0;
#X connect 2 2 37 0;
#X connect 3 2 1 0;
#X connect 4 0 35 0;
#X connect 5 0 9 0;
#X connect 6 0 27 0;
#X connect 7 0 10 1;
#X connect 7 0 10 0;
#X connect 8 0 7 0;
#X connect 9 0 8 0;
#X connect 10 0 6 1;
#X connect 11 0 5 3;
#X connect 11 0 12 3;
#X connect 11 0 22 3;
#X connect 11 0 13 3;
#X connect 11 0 4 3;
#X connect 11 0 32 3;
#X connect 12 0 20 0;
#X connect 13 0 17 0;
#X connect 14 0 33 0;
#X connect 15 0 18 1;
#X connect 15 0 18 0;
#X connect 16 0 15 0;
#X connect 17 0 16 0;
#X connect 18 0 14 1;
#X connect 19 0 14 0;
#X connect 19 0 31 1;
#X connect 20 0 21 0;
#X connect 21 0 19 0;
#X connect 22 0 26 0;
#X connect 23 0 14 0;
#X connect 23 0 31 1;
#X connect 24 0 25 0;
#X connect 25 0 23 0;
#X connect 26 0 24 0;
#X connect 28 0 29 1;
#X connect 29 0 27 1;
#X connect 31 0 34 0;
#X connect 32 0 31 2;
#X connect 33 0 29 0;
#X connect 34 0 27 0;
#X connect 35 0 6 0;
#X connect 36 0 4 0;
#X connect 36 1 5 0;
#X connect 36 2 32 0;
#X connect 37 0 12 0;
#X connect 37 1 22 0;
#X connect 37 2 13 0;
#X restore 657 297 pd sound;
#X obj 63 32 udpreceive 7110;
#X obj 270 143 voiceprompts;
#X obj 53 251 flip-instance-joint;
#X obj 55 294 route 1 2 3 4 5 6 7 8 9;
#X obj 191 320 draw-skeleton;
#X obj 55 506 draw-skeleton;
#X obj 181 340 draw-skeleton;
#X obj 161 360 draw-skeleton;
#X obj 149 380 draw-skeleton;
#X obj 134 400 draw-skeleton;
#X obj 121 420 draw-skeleton;
#X obj 109 440 draw-skeleton;
#X obj 94 460 draw-skeleton;
#X obj 75 482 draw-skeleton;
#X obj 223 241 bang;
#X obj 224 265 send draw-skeleton-reset;
#X obj 53 193 route /joint /new_skel;
#X obj 293 300 list split 1;
#X obj 85 163 pddp/print;
#X obj 325 327 list trim;
#X obj 335 361 voice;
#N canvas 817 642 647 305 record 0;
#X obj 49 22 inlet;
#X obj 206 237 qlist;
#X obj 206 164 list prepend add;
#X obj 206 193 list trim;
#X obj 275 91 timer;
#X obj 206 135 list prepend;
#X obj 149 63 trigger bang anything bang;
#X obj 110 33 pddp/print;
#X msg 218 215 write qlist.txt;
#X msg 335 215 clear;
#X obj 206 112 list prepend osceleton;
#X connect 0 0 6 0;
#X connect 0 0 7 0;
#X connect 2 0 3 0;
#X connect 3 0 1 0;
#X connect 4 0 5 1;
#X connect 5 0 2 0;
#X connect 6 0 4 0;
#X connect 6 1 10 0;
#X connect 6 2 4 1;
#X connect 8 0 1 0;
#X connect 9 0 1 0;
#X connect 10 0 5 0;
#X restore 94 138 pd record data;
#X connect 1 0 15 0;
#X connect 1 0 30 0;
#X connect 1 0 32 0;
#X connect 1 0 35 0;
#X connect 2 0 1 0;
#X connect 2 1 1 1;
#X connect 4 0 3 0;
#X connect 5 0 7 0;
#X connect 7 0 6 0;
#X connect 9 0 10 0;
#X connect 10 0 8 0;
#X connect 11 0 3 0;
#X connect 14 0 2 0;
#X connect 16 0 17 0;
#X connect 16 0 31 0;
#X connect 17 0 19 0;
#X connect 17 1 27 0;
#X connect 17 2 26 0;
#X connect 17 3 25 0;
#X connect 17 4 24 0;
#X connect 17 5 23 0;
#X connect 17 6 22 0;
#X connect 17 7 21 0;
#X connect 17 8 20 0;
#X connect 17 9 18 0;
#X connect 28 0 29 0;
#X connect 30 0 16 0;
#X connect 30 1 28 0;
#X connect 31 1 33 0;
#X connect 33 0 34 0;
