#N canvas 521 115 816 607 10;
#X declare -lib mrpeach;
#X text 55 180 pddp/print;
#X obj 538 14 import mrpeach;
#X obj 53 109 pipelist;
#X obj 56 84 unpackOSC;
#X obj 105 209 routeOSC /lost_user /new_user /new_skel /joint;
#X obj 471 104 gemwin;
#X msg 483 74 0 \, destroy;
#X obj 566 124 gemhead;
#X obj 568 167 world_light;
#X obj 378 409 joint torso;
#X obj 565 145 rotateXYZ 9 9 0;
#X obj 208 75 camera;
#X obj 205 27 loadbang;
#X obj 28 442 connection;
#X obj 283 309 joint neck;
#X obj 162 348 joint l_shoulder;
#X obj 415 366 joint r_shoulder;
#X obj 236 448 joint l_hip;
#X obj 323 451 joint r_hip;
#X obj 247 523 joint l_knee;
#X obj 334 541 joint r_knee;
#X obj 257 570 joint l_foot;
#X obj 344 579 joint r_foot;
#X obj 35 405 joint l_elbow;
#X obj 590 307 joint r_elbow;
#X obj 24 460 joint l_hand;
#X obj 708 348 joint r_hand;
#X obj 285 263 joint head;
#X obj 689 323 connection;
#X obj 197 545 connection;
#X obj 370 559 connection;
#X obj 227 485 connection;
#X obj 330 491 connection;
#X obj 311 285 connection;
#X obj 433 442 connection;
#X obj 218 416 connection;
#X obj 189 370 connection;
#X obj 414 387 connection;
#X obj 187 322 connection;
#X obj 412 339 connection;
#X obj 45 359 connection;
#X obj 514 316 connection;
#X msg 207 52 distance 3;
#X msg 436 44 reset \, lighting 1 \, view -5 0 4 \, create \, 1;
#X text 693 44 <-- start here;
#N canvas 655 96 754 587 sound 0;
#X obj 47 9 inlet;
#X obj 400 114 print;
#X obj 52 69 route head neck l_shoulder r_shoulder l_elbow r_elbow
l_hand r_hand torso l_hip r_hip l_knee r_knee l_foot r_foot;
#X obj 111 137 route l_shoulder l_elbow l_hand;
#X obj 293 156 route r_shoulder r_elbow r_hand;
#X obj 19 111 route head neck;
#X obj 138 281 autoscale;
#X obj 238 251 autoscale;
#X obj 141 378 *~;
#X obj 121 415 dac~;
#X obj 238 325 line~;
#X msg 235 303 \$1 20;
#X obj 132 215 unpack 0 0 0 0;
#X obj 242 281 reverse;
#X obj 234 351 *~;
#X obj 296 226 bng 15 250 50 0 empty empty empty 17 7 0 10 -262144
-1 -1;
#X obj 66 322 phasevocoder voice.wav;
#X obj 328 251 autoscale;
#X obj 568 251 autoscale;
#X obj 371 398 *~;
#X obj 568 345 line~;
#X msg 565 323 \$1 20;
#X obj 362 215 unpack 0 0 0 0;
#X obj 572 301 reverse;
#X obj 564 371 *~;
#X obj 327 350 osc~;
#X obj 328 309 notescale 50 80;
#X obj 328 330 mtof;
#X obj 329 284 reverse;
#X obj 428 251 autoscale;
#X obj 427 350 osc~;
#X obj 428 309 notescale 50 80;
#X obj 428 330 mtof;
#X obj 429 284 reverse;
#X obj 343 497 dac~;
#X obj 386 445 tgl 15 0 empty empty empty 17 7 0 10 -262144 -1 -1 0
1;
#X obj 344 427 *~ 0.05;
#X obj 348 470 *~;
#X connect 0 0 2 0;
#X connect 0 0 5 0;
#X connect 2 15 1 0;
#X connect 3 2 12 0;
#X connect 3 3 4 0;
#X connect 4 2 22 0;
#X connect 5 2 3 0;
#X connect 6 0 16 0;
#X connect 7 0 13 0;
#X connect 8 0 9 0;
#X connect 8 0 9 1;
#X connect 10 0 14 1;
#X connect 10 0 14 0;
#X connect 11 0 10 0;
#X connect 12 1 6 0;
#X connect 12 2 7 0;
#X connect 13 0 11 0;
#X connect 14 0 8 1;
#X connect 15 0 7 3;
#X connect 15 0 17 3;
#X connect 15 0 29 3;
#X connect 15 0 18 3;
#X connect 15 0 6 3;
#X connect 16 0 8 0;
#X connect 17 0 28 0;
#X connect 18 0 23 0;
#X connect 19 0 36 0;
#X connect 20 0 24 1;
#X connect 20 0 24 0;
#X connect 21 0 20 0;
#X connect 22 1 17 0;
#X connect 22 2 29 0;
#X connect 22 3 18 0;
#X connect 23 0 21 0;
#X connect 24 0 19 1;
#X connect 25 0 19 0;
#X connect 26 0 27 0;
#X connect 27 0 25 0;
#X connect 28 0 26 0;
#X connect 29 0 33 0;
#X connect 30 0 19 0;
#X connect 31 0 32 0;
#X connect 32 0 30 0;
#X connect 33 0 31 0;
#X connect 35 0 37 1;
#X connect 36 0 37 0;
#X connect 37 0 34 0;
#X connect 37 0 34 1;
#X restore 555 256 pd sound;
#X obj 116 155 pddp/print;
#X obj 63 32 udpreceive 7110;
#X obj 270 143 voiceprompts;
#X connect 2 0 4 0;
#X connect 2 0 46 0;
#X connect 2 0 48 0;
#X connect 3 0 2 0;
#X connect 3 1 2 1;
#X connect 4 3 9 0;
#X connect 4 3 14 0;
#X connect 4 3 15 0;
#X connect 4 3 16 0;
#X connect 4 3 17 0;
#X connect 4 3 18 0;
#X connect 4 3 19 0;
#X connect 4 3 20 0;
#X connect 4 3 21 0;
#X connect 4 3 22 0;
#X connect 4 3 23 0;
#X connect 4 3 24 0;
#X connect 4 3 25 0;
#X connect 4 3 26 0;
#X connect 4 3 27 0;
#X connect 4 3 45 0;
#X connect 6 0 5 0;
#X connect 7 0 10 0;
#X connect 9 0 34 0;
#X connect 9 0 35 1;
#X connect 9 0 37 1;
#X connect 9 0 36 1;
#X connect 10 0 8 0;
#X connect 12 0 42 0;
#X connect 14 0 33 1;
#X connect 14 0 38 0;
#X connect 14 0 39 0;
#X connect 15 0 36 0;
#X connect 15 0 38 1;
#X connect 15 0 40 1;
#X connect 16 0 37 0;
#X connect 16 0 39 1;
#X connect 16 0 41 0;
#X connect 17 0 31 0;
#X connect 17 0 35 0;
#X connect 18 0 32 0;
#X connect 18 0 34 1;
#X connect 19 0 29 0;
#X connect 19 0 31 1;
#X connect 20 0 30 0;
#X connect 20 0 32 1;
#X connect 21 0 29 1;
#X connect 22 0 30 1;
#X connect 23 0 13 1;
#X connect 23 0 40 0;
#X connect 24 0 28 0;
#X connect 24 0 41 1;
#X connect 25 0 13 0;
#X connect 26 0 28 1;
#X connect 27 0 33 0;
#X connect 42 0 11 0;
#X connect 43 0 5 0;
#X connect 47 0 3 0;
