#N canvas 1156 82 450 300 10;
#X obj 107 81 mrpeach/udpreceive 7110;
#X obj 106 116 mrpeach/unpackOSC;
#X obj 195 199 mrpeach/udpsend;
#X msg 215 165 connect 255.255.255.255 7777;
#X obj 197 225 tgl 15 0 empty empty empty 17 7 0 10 -262144 -1 -1 1
1;
#X obj 216 143 loadbang;
#X obj 106 149 mrpeach/pipelist;
#X connect 0 0 1 0;
#X connect 0 0 2 0;
#X connect 1 0 6 0;
#X connect 1 1 6 1;
#X connect 2 0 4 0;
#X connect 3 0 2 0;
#X connect 5 0 3 0;
