#N canvas 687 201 702 599 10;
#X obj 57 19 inlet;
#X obj 103 104 route l_shoulder l_elbow l_hand;
#X obj 285 123 route r_shoulder r_elbow r_hand;
#X obj 114 300 autoscale;
#X obj 207 294 autoscale;
#X obj 207 316 reverse;
#X obj 306 213 bng 15 250 50 0 empty empty empty 17 7 0 10 -262144
-1 -1;
#X obj 338 261 autoscale;
#X obj 578 261 autoscale;
#X obj 364 433 line~;
#X msg 364 401 \$1 20;
#X obj 577 289 reverse;
#X obj 358 459 *~;
#X obj 438 261 autoscale;
#X obj 439 294 reverse;
#X obj 249 527 dac~;
#X obj 277 293 autoscale;
#X obj 81 418 phasevocoder voice.wav;
#X obj 143 225 unpack 0 0 0;
#X obj 390 209 unpack 0 0 0;
#X obj 249 500 *~;
#X floatatom 446 329 5 0 0 0 - - -;
#X obj 187 26 inlet;
#X msg 208 381 voice.wav;
#X msg 225 362 partying.wav;
#X obj 297 25 inlet;
#X connect 0 0 1 0;
#X connect 1 2 18 0;
#X connect 1 3 2 0;
#X connect 2 2 19 0;
#X connect 3 0 17 0;
#X connect 4 0 5 0;
#X connect 5 0 17 1;
#X connect 6 0 4 3;
#X connect 6 0 7 3;
#X connect 6 0 13 3;
#X connect 6 0 8 3;
#X connect 6 0 3 3;
#X connect 6 0 16 3;
#X connect 8 0 11 0;
#X connect 9 0 12 1;
#X connect 9 0 12 0;
#X connect 10 0 9 0;
#X connect 12 0 20 1;
#X connect 13 0 14 0;
#X connect 14 0 10 0;
#X connect 14 0 21 0;
#X connect 17 0 20 0;
#X connect 18 0 3 0;
#X connect 18 1 4 0;
#X connect 18 2 16 0;
#X connect 19 0 7 0;
#X connect 19 1 13 0;
#X connect 19 2 8 0;
#X connect 20 0 15 0;
#X connect 20 0 15 1;
#X connect 22 0 17 2;
#X connect 23 0 17 2;
#X connect 24 0 17 2;
#X connect 25 0 17 3;
