#N canvas 330 229 690 561 10;
#X obj 57 19 inlet;
#X obj 121 147 route l_shoulder l_elbow l_hand;
#X obj 303 166 route r_shoulder r_elbow r_hand;
#X obj 29 121 route head neck;
#X obj 114 300 autoscale;
#X obj 214 270 autoscale;
#X obj 152 410 *~;
#X obj 214 344 line~;
#X msg 211 322 \$1 20;
#X obj 214 292 reverse;
#X obj 210 370 *~;
#X obj 306 236 bng 15 250 50 0 empty empty empty 17 7 0 10 -262144
-1 -1;
#X obj 338 261 autoscale;
#X obj 578 261 autoscale;
#X obj 381 408 *~;
#X obj 578 355 line~;
#X msg 575 333 \$1 20;
#X obj 582 311 reverse;
#X obj 574 381 *~;
#X obj 337 360 osc~;
#X obj 338 319 notescale 50 80;
#X obj 338 340 mtof;
#X obj 438 261 autoscale;
#X obj 437 360 osc~;
#X obj 438 319 notescale 50 80;
#X obj 438 340 mtof;
#X obj 439 294 reverse;
#X obj 249 527 dac~;
#X obj 396 455 tgl 15 1 empty empty empty 17 7 0 10 -262144 -1 -1 0
1;
#X obj 358 480 *~;
#N canvas 480 550 450 300 ring 0;
#X obj 330 19 inlet;
#X obj 188 22 inlet~;
#X obj 175 259 outlet~;
#X obj 197 187 *~;
#X obj 236 186 *~;
#X obj 241 22 inlet~;
#X obj 237 124 *~;
#X obj 330 153 line~;
#X obj 282 150 line~;
#X msg 282 129 \$1 20;
#X msg 330 125 \$1 20;
#X obj 335 87 -;
#X msg 332 58 1 \$1;
#X connect 0 0 12 0;
#X connect 0 0 9 0;
#X connect 1 0 6 0;
#X connect 1 0 3 0;
#X connect 3 0 2 0;
#X connect 4 0 2 0;
#X connect 5 0 6 1;
#X connect 6 0 4 0;
#X connect 7 0 4 1;
#X connect 8 0 3 1;
#X connect 9 0 8 0;
#X connect 10 0 7 0;
#X connect 11 0 10 0;
#X connect 12 0 11 0;
#X restore 161 442 pd ring mod;
#X obj 277 293 autoscale;
#X obj 161 471 *~ 4;
#X obj 46 353 phasevocoder voice.wav;
#X obj 143 225 unpack 0 0 0;
#X obj 397 213 unpack 0 0 0;
#X obj 354 436 *~ 1;
#X msg 105 328 partying.wav;
#X text 299 212 RESET;
#X connect 0 0 3 0;
#X connect 1 2 34 0;
#X connect 1 3 2 0;
#X connect 2 2 35 0;
#X connect 3 2 1 0;
#X connect 4 0 33 0;
#X connect 5 0 9 0;
#X connect 6 0 30 0;
#X connect 7 0 10 1;
#X connect 7 0 10 0;
#X connect 8 0 7 0;
#X connect 9 0 8 0;
#X connect 10 0 6 1;
#X connect 11 0 5 3;
#X connect 11 0 12 3;
#X connect 11 0 22 3;
#X connect 11 0 13 3;
#X connect 11 0 4 3;
#X connect 11 0 31 3;
#X connect 12 0 20 0;
#X connect 13 0 17 0;
#X connect 14 0 36 0;
#X connect 15 0 18 1;
#X connect 15 0 18 0;
#X connect 16 0 15 0;
#X connect 17 0 16 0;
#X connect 18 0 14 1;
#X connect 19 0 14 0;
#X connect 19 0 30 1;
#X connect 20 0 21 0;
#X connect 21 0 19 0;
#X connect 22 0 26 0;
#X connect 23 0 14 0;
#X connect 23 0 30 1;
#X connect 24 0 25 0;
#X connect 25 0 23 0;
#X connect 26 0 24 0;
#X connect 28 0 29 1;
#X connect 29 0 27 1;
#X connect 30 0 32 0;
#X connect 31 0 30 2;
#X connect 32 0 27 0;
#X connect 32 0 27 1;
#X connect 33 0 6 0;
#X connect 34 0 4 0;
#X connect 34 1 5 0;
#X connect 34 2 31 0;
#X connect 35 0 12 0;
#X connect 35 1 22 0;
#X connect 35 2 13 0;
#X connect 36 0 29 0;
#X connect 37 0 33 2;
