#N canvas 847 287 450 300 10;
#X obj 361 13 inlet;
#X obj 18 17 inlet;
#X obj 28 262 outlet;
#X obj 189 259 outlet;
#X obj 359 256 outlet;
#X obj 143 119 list-abs/list-emath -;
#X obj 143 161 unpack float float float;
#X connect 0 0 5 1;
#X connect 1 0 5 0;
#X connect 5 0 6 0;
#X connect 6 0 2 0;
#X connect 6 1 3 0;
#X connect 6 2 4 0;
