#N canvas 483 264 675 383 10;
#X obj 41 23 inlet;
#X obj 191 257 *~;
#X obj 164 233 osc~;
#X obj 270 209 line~;
#X obj 164 208 line~;
#X msg 164 186 500 \, 1000 500;
#X obj 164 66 bng 15 250 50 0 empty empty empty 17 7 0 10 -262144 -1
-1;
#X msg 270 186 1 \, 0 500;
#X msg 173 163 1000 \, 500 500;
#X obj 221 67 bng 15 250 50 0 empty empty empty 17 7 0 10 -262144 -1
-1;
#X obj 343 211 *~;
#X obj 342 157 cyclone/Line~;
#X obj 359 181 osc~ 1500;
#X msg 341 133 0 \, 1 100 0 100 1 100 0 100 1 100 0 100 1 100 0 100
;
#X obj 190 280 *~ 0.2;
#X obj 255 337 dac~;
#X obj 160 42 routeOSC /new_user /lost_user /new_skel;
#N canvas 641 330 450 351 play 0;
#X obj 77 27 inlet;
#N canvas 303 612 568 246 samples 0;
#X obj 37 76 list-abs/list-drip;
#X msg 39 167 read -resize s/\$1.wav \$1;
#X obj 39 194 soundfiler;
#X obj 35 16 loadbang;
#X obj 437 41 table t2;
#X obj 437 21 table t1;
#X obj 437 61 table t3;
#X obj 437 81 table t4;
#X obj 437 101 table t5;
#X obj 437 121 table t6;
#X obj 438 141 table t7;
#X obj 38 105 route symbol float;
#X obj 438 161 table t8;
#X msg 90 132 symbol t\$1;
#X obj 33 134 symbol;
#X obj 328 48 table lost_user;
#X obj 328 27 table new_user;
#X obj 328 68 table new_skel;
#X obj 438 181 table t9;
#X msg 37 46 new_user lost_user new_skel 1 2 3 4 5 6 7 8 9;
#X connect 0 0 11 0;
#X connect 1 0 2 0;
#X connect 3 0 19 0;
#X connect 11 0 14 0;
#X connect 11 1 13 0;
#X connect 13 0 1 0;
#X connect 14 0 1 0;
#X connect 19 0 0 0;
#X restore 351 14 pd samples;
#X obj 157 188 trigger bang anything;
#X obj 156 239 tabplay~;
#X obj 154 127 unpack symbol float;
#X msg 200 215 set \$1;
#X msg 265 168 symbol t\$1;
#X obj 155 280 outlet~;
#X obj 75 53 routeOSC /new_user /lost_user /new_skel;
#X msg 58 88 new_user \$1;
#X msg 142 89 lost_user \$1;
#X msg 237 88 new_skel \$1;
#X obj 265 148 pipe 1000;
#X connect 0 0 8 0;
#X connect 2 0 3 0;
#X connect 2 1 5 0;
#X connect 3 0 7 0;
#X connect 4 0 2 0;
#X connect 4 1 12 0;
#X connect 5 0 3 0;
#X connect 6 0 2 0;
#X connect 8 0 9 0;
#X connect 8 1 10 0;
#X connect 8 2 11 0;
#X connect 9 0 4 0;
#X connect 10 0 4 0;
#X connect 11 0 4 0;
#X connect 12 0 6 0;
#X restore 28 271 pd play voice prompts;
#X obj 341 261 cyclone/tanh~;
#X obj 342 239 *~ 3;
#X connect 0 0 16 0;
#X connect 0 0 17 0;
#X connect 1 0 14 0;
#X connect 2 0 1 0;
#X connect 3 0 1 1;
#X connect 4 0 2 0;
#X connect 5 0 4 0;
#X connect 6 0 7 0;
#X connect 6 0 5 0;
#X connect 7 0 3 0;
#X connect 8 0 4 0;
#X connect 9 0 7 0;
#X connect 9 0 8 0;
#X connect 10 0 19 0;
#X connect 11 0 10 0;
#X connect 12 0 10 1;
#X connect 13 0 11 0;
#X connect 14 0 15 0;
#X connect 14 0 15 1;
#X connect 16 0 6 0;
#X connect 16 1 9 0;
#X connect 16 2 13 0;
#X connect 17 0 15 1;
#X connect 17 0 15 0;
#X connect 18 0 15 1;
#X connect 18 0 15 0;
#X connect 19 0 18 0;
